<svg xmlns="http://www.w3.org/2000/svg" width="1200" height="760" viewBox="0 0 1200 760" role="img" aria-label="Digital banking mobile dashboard">
  <rect width="1200" height="760" fill="#10213f"/>
  <rect x="430" y="80" width="360" height="620" rx="44" fill="#0a0e1a"/>
  <rect x="460" y="125" width="300" height="530" rx="26" fill="#f4f6fb"/>
  <rect x="492" y="165" width="190" height="20" rx="10" fill="#1a3a6e"/>
  <rect x="492" y="220" width="236" height="120" rx="20" fill="#2563eb"/>
  <rect x="518" y="250" width="125" height="14" rx="7" fill="#fff" opacity=".75"/>
  <rect x="518" y="285" width="172" height="28" rx="14" fill="#fff" opacity=".35"/>
  <rect x="492" y="375" width="105" height="90" rx="16" fill="#ffffff"/>
  <rect x="623" y="375" width="105" height="90" rx="16" fill="#ffffff"/>
  <rect x="492" y="495" width="236" height="18" rx="9" fill="#1a3a6e" opacity=".28"/>
  <rect x="492" y="535" width="190" height="18" rx="9" fill="#1a3a6e" opacity=".28"/>
  <circle cx="230" cy="220" r="90" fill="#2563eb" opacity=".18"/>
  <circle cx="980" cy="560" r="130" fill="#ffffff" opacity=".08"/>
</svg>
